<svg width="221" height="217" viewBox="0 0 221 217" fill="none" xmlns="http://www.w3.org/2000/svg">
  <path fill-rule="evenodd" clip-rule="evenodd" d="M100.323 193.077V202.965H88.7823V193.077H50V216.541H67.7191V212.854H54.7202V206.652H67.7191V202.965H54.7202V196.764H73.5529V216.541H78.2731V196.764H84.0621V216.541H88.7823V206.652H100.323V216.541H105.043V193.077H100.323Z" fill="#003B50"/>
  <path fill-rule="evenodd" clip-rule="evenodd" d="M108.163 216.541H111.901V193H108.163V216.541Z" fill="#003B50"/>
  <path fill-rule="evenodd" clip-rule="evenodd" d="M115.193 200.601H118.819V202.074C120.081 200.797 121.504 200.159 123.087 200.159C124.905 200.159 126.323 200.743 127.338 201.91C128.215 202.903 128.655 204.523 128.655 206.771V216.541H125.029V207.638C125.029 206.067 124.815 204.982 124.387 204.381C123.969 203.77 123.21 203.465 122.108 203.465C120.91 203.465 120.059 203.869 119.556 204.676C119.064 205.472 118.819 206.864 118.819 208.849V216.541H115.193V200.601Z" fill="#003B50"/>
  <path fill-rule="evenodd" clip-rule="evenodd" d="M133.863 208.521C133.863 210.05 134.265 211.293 135.067 212.253C135.889 213.225 136.927 213.71 138.179 213.71C139.516 213.71 140.596 213.241 141.42 212.303C142.244 211.331 142.656 210.099 142.656 208.604C142.656 207.109 142.244 205.876 141.42 204.905C140.596 203.956 139.527 203.481 138.212 203.481C136.969 203.481 135.932 203.961 135.099 204.921C134.275 205.892 133.863 207.093 133.863 208.521ZM142.431 193H146.057V216.541H142.431V214.871C141.009 216.291 139.399 217 137.602 217C135.462 217 133.686 216.203 132.274 214.61C130.872 212.984 130.173 210.955 130.173 208.521C130.173 206.143 130.872 204.158 132.274 202.565C133.665 200.961 135.414 200.16 137.521 200.16C139.351 200.16 140.987 200.922 142.431 202.45V193Z" fill="#003B50"/>
  <path fill-rule="evenodd" clip-rule="evenodd" d="M148.642 216.541H152.252V200.6H148.642V216.541ZM148.097 195.374C148.097 194.73 148.327 194.174 148.787 193.705C149.246 193.236 149.797 193.001 150.44 193.001C151.092 193.001 151.647 193.236 152.108 193.705C152.567 194.163 152.798 194.725 152.798 195.39C152.798 196.056 152.567 196.624 152.108 197.092C151.659 197.561 151.108 197.796 150.456 197.796C149.802 197.796 149.246 197.561 148.787 197.092C148.327 196.624 148.097 196.051 148.097 195.374Z" fill="#003B50"/>
  <path fill-rule="evenodd" clip-rule="evenodd" d="M157.806 208.521C157.806 210.05 158.207 211.293 159.009 212.253C159.832 213.225 160.871 213.71 162.122 213.71C163.459 213.71 164.54 213.241 165.362 212.303C166.186 211.331 166.599 210.099 166.599 208.604C166.599 207.109 166.186 205.876 165.362 204.905C164.54 203.956 163.47 203.481 162.154 203.481C160.913 203.481 159.875 203.961 159.042 204.921C158.218 205.892 157.806 207.093 157.806 208.521ZM166.374 200.601H170V216.541H166.374V214.871C164.887 216.291 163.288 217 161.577 217C159.415 217 157.629 216.203 156.216 214.61C154.816 212.984 154.116 210.955 154.116 208.521C154.116 206.132 154.816 204.141 156.216 202.548C157.619 200.955 159.372 200.16 161.48 200.16C163.299 200.16 164.93 200.922 166.374 202.45V200.601Z" fill="#003B50"/>
  <g clip-path="url(#clip0_17_7)">
    <path fill-rule="evenodd" clip-rule="evenodd" d="M205.864 148.373L203.296 150.421C182.887 166.674 157.593 171.98 133.899 164.977L110.34 158.015L86.7798 164.981C80.0335 166.98 73.0289 167.996 65.9879 168V167.996C48.8677 167.996 31.8948 161.973 17.3805 150.419L14.8224 148.377L41.0021 119.024C41.5531 118.406 42.3261 118.032 43.1565 117.981C43.983 117.931 44.8 118.21 45.4199 118.758C46.0417 119.303 46.4206 120.072 46.4703 120.897C46.5201 121.718 46.2388 122.527 45.6897 123.145L23.9067 147.562C42.1979 160.955 64.287 165.139 84.9966 159.024L106.418 152.69L58.769 125.383C53.0483 121.266 48.4104 115.841 45.242 109.569C42.0736 103.297 40.4721 96.3624 40.5678 89.3475L41.0059 59.1033L61.6256 65.8293C62.0217 65.949 62.3909 66.1485 62.7085 66.4145C63.0261 66.6786 63.2883 67.0016 63.4796 67.3702C63.6709 67.7369 63.7857 68.1359 63.8183 68.5463C63.8527 68.9567 63.8029 69.3709 63.6728 69.7623C63.5427 70.1537 63.3361 70.5166 63.0644 70.8263C62.7927 71.1398 62.4617 71.3925 62.0886 71.5749C61.7155 71.7573 61.3099 71.8656 60.8966 71.8922C60.4834 71.9169 60.0663 71.8618 59.674 71.725L47.1381 67.6419L46.8205 89.4368C46.7401 95.4295 48.1024 101.352 50.7944 106.715C53.4902 112.077 57.4355 116.721 62.3067 120.261L110.35 147.774L158.969 120.253C163.863 116.719 167.829 112.072 170.539 106.696C173.246 101.323 174.612 95.382 174.524 89.3742L174.214 67.6001L159.927 72.1259C159.139 72.3767 158.28 72.3045 157.541 71.9245C156.805 71.5464 156.248 70.8928 155.997 70.11C155.743 69.3234 155.818 68.4722 156.198 67.7388C156.579 67.0073 157.237 66.4544 158.027 66.2055L180.352 59.1413L180.779 89.2906C180.878 96.3225 179.267 103.278 176.085 109.56C172.901 115.843 168.239 121.269 162.493 125.381L162.216 125.558L114.276 152.695L135.68 159.024C156.38 165.139 178.463 160.955 196.758 147.571L174.702 122.995C174.151 122.379 173.868 121.57 173.916 120.747C173.965 119.926 174.34 119.155 174.96 118.606C175.58 118.058 176.395 117.777 177.222 117.827C178.052 117.874 178.827 118.247 179.378 118.862L205.86 148.375L205.864 148.373Z" fill="#003B50"/>
    <path fill-rule="evenodd" clip-rule="evenodd" d="M110.149 105.515L110.088 105.549V105.48L110.149 105.515Z" fill="#003B50"/>
    <path fill-rule="evenodd" clip-rule="evenodd" d="M152.814 70.1366L110.191 95.1311L110.149 95.1045L110.105 95.1311L67.4822 70.1366L110.019 0L110.149 0.2147L110.277 0L152.814 70.1366Z" fill="#003B50"/>
    <path fill-rule="evenodd" clip-rule="evenodd" d="M152.81 80.902L110.277 141.953L110.149 141.772L110.019 141.953L67.4861 80.902L110.019 105.589L110.088 105.549L110.149 105.515L110.208 105.549L110.277 105.589L152.81 80.902Z" fill="#003B50"/>
    <path fill-rule="evenodd" clip-rule="evenodd" d="M110.208 105.48V105.549L110.149 105.515L110.208 105.48Z" fill="#003B50"/>
    <path fill-rule="evenodd" clip-rule="evenodd" d="M23.5317 126.981C22.8238 126.981 22.1369 126.74 21.5821 126.301C21.0291 125.862 20.6426 125.248 20.4838 124.562C18.4079 115.497 12.5417 105.83 3.52622 96.6036L0 93.0069L4.82344 91.4831C15.4652 88.1239 24.7658 87.666 33.2551 90.0999C34.053 90.3279 34.7246 90.8618 35.1263 91.5819C35.5281 92.3039 35.6238 93.1532 35.3942 93.9436C35.1646 94.7359 34.627 95.4028 33.9018 95.8018C33.1767 96.2008 32.3195 96.2958 31.5236 96.0678C25.4374 94.3255 18.9934 94.3122 11.5334 96.0678C19.3722 104.979 24.5477 114.277 26.5911 123.185C26.6925 123.641 26.6906 124.112 26.5834 124.566C26.4763 125.02 26.2697 125.446 25.975 125.809C25.6823 126.173 25.3092 126.466 24.8863 126.669C24.4635 126.871 23.9986 126.977 23.5298 126.977" fill="#003B50"/>
    <path d="M23.5317 126.981C22.8238 126.981 22.1369 126.74 21.5821 126.301C21.0291 125.862 20.6426 125.248 20.4838 124.562C18.4079 115.497 12.5417 105.83 3.52622 96.6036L0 93.0069L4.82344 91.4831C15.4652 88.1239 24.7658 87.666 33.2551 90.0999C34.053 90.3279 34.7246 90.8618 35.1263 91.5819C35.5281 92.3039 35.6238 93.1532 35.3942 93.9436C35.1646 94.7359 34.627 95.4028 33.9018 95.8018C33.1767 96.2008 32.3195 96.2958 31.5236 96.0678C25.4374 94.3255 18.9934 94.3122 11.5334 96.0678C19.3722 104.979 24.5477 114.277 26.5911 123.185C26.6925 123.641 26.6906 124.112 26.5834 124.566C26.4763 125.02 26.2697 125.446 25.975 125.809C25.6823 126.173 25.3092 126.466 24.8863 126.669C24.4635 126.871 23.9986 126.977 23.5298 126.977" fill="#003B50"/>
    <path fill-rule="evenodd" clip-rule="evenodd" d="M197.466 126.981C196.996 126.981 196.533 126.876 196.11 126.673C195.687 126.47 195.314 126.175 195.021 125.81C194.728 125.446 194.522 125.02 194.417 124.566C194.311 124.112 194.311 123.639 194.415 123.183C196.46 114.274 201.635 104.981 209.47 96.0679C202.009 94.3123 195.57 94.3256 189.48 96.0679C189.086 96.1819 188.673 96.2161 188.265 96.1724C187.858 96.1268 187.462 96.0014 187.102 95.8057C186.742 95.6081 186.427 95.3421 186.17 95.0229C185.914 94.7037 185.724 94.337 185.612 93.9456C185.497 93.5542 185.46 93.1438 185.506 92.7391C185.552 92.3344 185.677 91.941 185.874 91.5838C186.071 91.2266 186.339 90.9113 186.66 90.6567C186.981 90.4021 187.349 90.212 187.743 90.0999C196.236 87.666 205.539 88.122 216.178 91.4831L221.002 93.007L217.48 96.6056C208.46 105.828 202.598 115.493 200.518 124.564C200.361 125.25 199.975 125.862 199.42 126.303C198.867 126.741 198.18 126.981 197.47 126.983" fill="#003B50"/>
    <path d="M197.466 126.981C196.996 126.981 196.533 126.876 196.11 126.673C195.687 126.47 195.314 126.175 195.021 125.81C194.728 125.446 194.522 125.02 194.417 124.566C194.311 124.112 194.311 123.639 194.415 123.183C196.46 114.274 201.635 104.981 209.47 96.0679C202.009 94.3123 195.57 94.3256 189.48 96.0679C189.086 96.1819 188.673 96.2161 188.265 96.1724C187.858 96.1268 187.462 96.0014 187.102 95.8057C186.742 95.6081 186.427 95.3421 186.17 95.0229C185.914 94.7037 185.724 94.337 185.612 93.9456C185.497 93.5542 185.46 93.1438 185.506 92.7391C185.552 92.3344 185.677 91.941 185.874 91.5838C186.071 91.2266 186.339 90.9113 186.66 90.6567C186.981 90.4021 187.349 90.212 187.743 90.0999C196.236 87.666 205.539 88.122 216.178 91.4831L221.002 93.007L217.48 96.6056C208.46 105.828 202.598 115.493 200.518 124.564C200.361 125.25 199.975 125.862 199.42 126.303C198.867 126.741 198.18 126.981 197.47 126.983" fill="#003B50"/>
    <path fill-rule="evenodd" clip-rule="evenodd" d="M60.5886 59.5384C60.1485 59.5384 59.7123 59.4472 59.3105 59.2686C58.9087 59.09 58.549 58.8297 58.2544 58.5048C57.9616 58.178 57.7397 57.7942 57.6058 57.3781C57.4718 56.962 57.4278 56.5212 57.4776 56.0861L59.9668 33.9834L75.5602 44.5417C76.2241 45.0148 76.6776 45.7254 76.8192 46.5253C76.9627 47.3252 76.7847 48.1479 76.3255 48.8186C75.8663 49.4893 75.1603 49.9548 74.3587 50.1163C73.557 50.2778 72.7247 50.1201 72.0397 49.6793L65.0294 44.9331L63.6958 56.7777C63.6097 57.5358 63.2462 58.2369 62.6741 58.7461C62.102 59.2553 61.3597 59.5384 60.5905 59.5384" fill="#003B50"/>
    <path d="M60.5886 59.5384C60.1485 59.5384 59.7123 59.4472 59.3105 59.2686C58.9087 59.09 58.549 58.8297 58.2544 58.5048C57.9616 58.178 57.7397 57.7942 57.6058 57.3781C57.4718 56.962 57.4278 56.5212 57.4776 56.0861L59.9668 33.9834L75.5602 44.5417C76.2241 45.0148 76.6776 45.7254 76.8192 46.5253C76.9627 47.3252 76.7847 48.1479 76.3255 48.8186C75.8663 49.4893 75.1603 49.9548 74.3587 50.1163C73.557 50.2778 72.7247 50.1201 72.0397 49.6793L65.0294 44.9331L63.6958 56.7777C63.6097 57.5358 63.2462 58.2369 62.6741 58.7461C62.102 59.2553 61.3597 59.5384 60.5905 59.5384" fill="#003B50"/>
    <path fill-rule="evenodd" clip-rule="evenodd" d="M159.369 59.5384C158.609 59.5384 157.874 59.261 157.304 58.7613C156.734 58.2616 156.369 57.5719 156.273 56.8233L154.74 44.8837L147.665 49.6774C146.98 50.141 146.136 50.3158 145.321 50.1619C144.506 50.008 143.785 49.5406 143.318 48.8585C142.851 48.1783 142.675 47.3404 142.828 46.531C142.983 45.7216 143.454 45.0053 144.141 44.5417L159.661 34.0328L162.478 56.0424C162.533 56.4794 162.495 56.924 162.363 57.3458C162.233 57.7676 162.013 58.1571 161.718 58.4877C161.424 58.8183 161.062 59.0824 160.658 59.2648C160.253 59.4453 159.814 59.5403 159.369 59.5384Z" fill="#003B50"/>
    <path d="M159.369 59.5384C158.609 59.5384 157.874 59.261 157.304 58.7613C156.734 58.2616 156.369 57.5719 156.273 56.8233L154.74 44.8837L147.665 49.6774C146.98 50.141 146.136 50.3158 145.321 50.1619C144.506 50.008 143.785 49.5406 143.318 48.8585C142.851 48.1783 142.675 47.3404 142.828 46.531C142.983 45.7216 143.454 45.0053 144.141 44.5417L159.661 34.0328L162.478 56.0424C162.533 56.4794 162.495 56.924 162.363 57.3458C162.233 57.7676 162.013 58.1571 161.718 58.4877C161.424 58.8183 161.062 59.0824 160.658 59.2648C160.253 59.4453 159.814 59.5403 159.369 59.5384Z" fill="#003B50"/>
  </g>
  <defs>
    <clipPath id="clip0_17_7">
      <rect width="221" height="168" fill="white"/>
    </clipPath>
  </defs>
</svg>
